<svg width="350" height="250" viewBox="0 0 350 250" fill="none" xmlns="http://www.w3.org/2000/svg">
<path d="M350 0H0V250H350V0Z" fill="#006B38"/>
<g filter="url(#filter0_i)">
<path d="M116.667 70V75H172.667V70H116.667Z" fill="white"/>
</g>
<path d="M184.333 15H35V52.5H184.333V15Z" fill="#006B38"/>
<path d="M42 16.875H37.3333V20.625H42V16.875Z" fill="white"/>
<path d="M42 22.5H37.3333V26.25H42V22.5Z" fill="white"/>
<path d="M42 28.125H37.3333V31.875H42V28.125Z" fill="white"/>
<path d="M42 33.75H37.3333V37.5H42V33.75Z" fill="white"/>
<path d="M42 39.375H37.3333V43.125H42V39.375Z" fill="white"/>
<path d="M42 45H37.3333V48.75H42V45Z" fill="white"/>
<path d="M49 22.5H44.3333V26.25H49V22.5Z" fill="white"/>
<path d="M49 28.125H44.3333V31.875H49V28.125Z" fill="white"/>
<path d="M49 33.75H44.3333V37.5H49V33.75Z" fill="white"/>
<path d="M49 39.375H44.3333V43.125H49V39.375Z" fill="white"/>
<path d="M49 45H44.3333V48.75H49V45Z" fill="white"/>
<path d="M56 22.5H51.3333V26.25H56V22.5Z" fill="white"/>
<path d="M56 28.125H51.3333V31.875H56V28.125Z" fill="white"/>
<path d="M56 33.75H51.3333V37.5H56V33.75Z" fill="white"/>
<path d="M56 39.375H51.3333V43.125H56V39.375Z" fill="white"/>
<path d="M56 45H51.3333V48.75H56V45Z" fill="white"/>
<path d="M112 45H107.333V48.75H112V45Z" fill="white"/>
<path d="M119 45H114.333V48.75H119V45Z" fill="white"/>
<path d="M126 45H121.333V48.75H126V45Z" fill="white"/>
<path d="M133 45H128.333V48.75H133V45Z" fill="white"/>
<path d="M140 45H135.333V48.75H140V45Z" fill="white"/>
<path d="M147 45H142.333V48.75H147V45Z" fill="white"/>
<path d="M156.333 45H149.333V48.75H156.333V45Z" fill="white"/>
<path d="M105 45H58.3333V48.75H105V45Z" fill="white"/>
<path d="M63 22.5H58.3333V26.25H63V22.5Z" fill="white"/>
<path d="M63 28.125H58.3333V31.875H63V28.125Z" fill="white"/>
<path d="M63 33.75H58.3333V37.5H63V33.75Z" fill="white"/>
<path d="M63 39.375H58.3333V43.125H63V39.375Z" fill="white"/>
<path d="M70 22.5H65.3333V26.25H70V22.5Z" fill="white"/>
<path d="M70 28.125H65.3333V31.875H70V28.125Z" fill="white"/>
<path d="M70 33.75H65.3333V37.5H70V33.75Z" fill="white"/>
<path d="M70 39.375H65.3333V43.125H70V39.375Z" fill="white"/>
<path d="M77 22.5H72.3333V26.25H77V22.5Z" fill="white"/>
<path d="M77 28.125H72.3333V31.875H77V28.125Z" fill="white"/>
<path d="M77 33.75H72.3333V37.5H77V33.75Z" fill="white"/>
<path d="M77 39.375H72.3333V43.125H77V39.375Z" fill="white"/>
<path d="M84 22.5H79.3333V26.25H84V22.5Z" fill="white"/>
<path d="M84 28.125H79.3333V31.875H84V28.125Z" fill="white"/>
<path d="M84 33.75H79.3333V37.5H84V33.75Z" fill="white"/>
<path d="M84 39.375H79.3333V43.125H84V39.375Z" fill="white"/>
<path d="M91 22.5H86.3333V26.25H91V22.5Z" fill="white"/>
<path d="M91 28.125H86.3333V31.875H91V28.125Z" fill="white"/>
<path d="M91 33.75H86.3333V37.5H91V33.75Z" fill="white"/>
<path d="M91 39.375H86.3333V43.125H91V39.375Z" fill="white"/>
<path d="M98 22.5H93.3333V26.25H98V22.5Z" fill="white"/>
<path d="M98 28.125H93.3333V31.875H98V28.125Z" fill="white"/>
<path d="M98 33.75H93.3333V37.5H98V33.75Z" fill="white"/>
<path d="M98 39.375H93.3333V43.125H98V39.375Z" fill="white"/>
<path d="M105 22.5H100.333V26.25H105V22.5Z" fill="white"/>
<path d="M105 28.125H100.333V31.875H105V28.125Z" fill="white"/>
<path d="M105 33.75H100.333V37.5H105V33.75Z" fill="white"/>
<path d="M105 39.375H100.333V43.125H105V39.375Z" fill="white"/>
<path d="M112 22.5H107.333V26.25H112V22.5Z" fill="white"/>
<path d="M112 28.125H107.333V31.875H112V28.125Z" fill="white"/>
<path d="M112 33.75H107.333V37.5H112V33.75Z" fill="white"/>
<path d="M112 39.375H107.333V43.125H112V39.375Z" fill="white"/>
<path d="M119 22.5H114.333V26.25H119V22.5Z" fill="white"/>
<path d="M119 28.125H114.333V31.875H119V28.125Z" fill="white"/>
<path d="M119 33.75H114.333V37.5H119V33.75Z" fill="white"/>
<path d="M119 39.375H114.333V43.125H119V39.375Z" fill="white"/>
<path d="M126 22.5H121.333V26.25H126V22.5Z" fill="white"/>
<path d="M126 28.125H121.333V31.875H126V28.125Z" fill="white"/>
<path d="M126 33.75H121.333V37.5H126V33.75Z" fill="white"/>
<path d="M126 39.375H121.333V43.125H126V39.375Z" fill="white"/>
<path d="M133 22.5H128.333V26.25H133V22.5Z" fill="white"/>
<path d="M133 28.125H128.333V31.875H133V28.125Z" fill="white"/>
<path d="M133 33.75H128.333V37.5H133V33.75Z" fill="white"/>
<path d="M133 39.375H128.333V43.125H133V39.375Z" fill="white"/>
<path d="M140 22.5H135.333V26.25H140V22.5Z" fill="white"/>
<path d="M140 28.125H135.333V31.875H140V28.125Z" fill="white"/>
<path d="M140 33.75H135.333V37.5H140V33.75Z" fill="white"/>
<path d="M140 39.375H135.333V43.125H140V39.375Z" fill="white"/>
<path d="M147 22.5H142.333V26.25H147V22.5Z" fill="white"/>
<path d="M163.333 22.5H158.667V26.25H163.333V22.5Z" fill="white"/>
<path d="M163.333 28.125H158.667V31.875H163.333V28.125Z" fill="white"/>
<path d="M163.333 45H158.667V48.75H163.333V45Z" fill="white"/>
<path d="M170.333 45H165.667V48.75H170.333V45Z" fill="white"/>
<path d="M177.333 45H172.667V48.75H177.333V45Z" fill="white"/>
<path d="M170.333 39.375H165.667V43.125H170.333V39.375Z" fill="white"/>
<path d="M163.333 16.875H158.667V20.625H163.333V16.875Z" fill="white"/>
<path d="M170.333 22.5H165.667V26.25H170.333V22.5Z" fill="white"/>
<path d="M170.333 28.125H165.667V31.875H170.333V28.125Z" fill="white"/>
<path d="M170.333 16.875H165.667V20.625H170.333V16.875Z" fill="white"/>
<path d="M177.333 22.5H172.667V26.25H177.333V22.5Z" fill="white"/>
<path d="M177.333 28.125H172.667V31.875H177.333V28.125Z" fill="white"/>
<path d="M177.333 16.875H172.667V20.625H177.333V16.875Z" fill="white"/>
<path d="M147 28.125H142.333V31.875H147V28.125Z" fill="white"/>
<path d="M147 33.75H142.333V37.5H147V33.75Z" fill="white"/>
<path d="M147 39.375H142.333V43.125H147V39.375Z" fill="white"/>
<path d="M156.333 22.5H149.333V26.25H156.333V22.5Z" fill="white"/>
<path d="M156.333 28.125H149.333V31.875H156.333V28.125Z" fill="white"/>
<path d="M156.333 33.75H149.333V37.5H156.333V33.75Z" fill="white"/>
<path d="M156.333 39.375H149.333V43.125H156.333V39.375Z" fill="white"/>
<path d="M51.3333 16.875H46.6667V20.625H51.3333V16.875Z" fill="white"/>
<path d="M58.3333 16.875H53.6667V20.625H58.3333V16.875Z" fill="white"/>
<path d="M65.3333 16.875H60.6667V20.625H65.3333V16.875Z" fill="white"/>
<path d="M72.3333 16.875H67.6667V20.625H72.3333V16.875Z" fill="white"/>
<path d="M81.6667 16.875H77V20.625H81.6667V16.875Z" fill="white"/>
<path d="M88.6667 16.875H84V20.625H88.6667V16.875Z" fill="white"/>
<path d="M95.6667 16.875H91V20.625H95.6667V16.875Z" fill="white"/>
<path d="M102.667 16.875H98V20.625H102.667V16.875Z" fill="white"/>
<path d="M112 16.875H107.333V20.625H112V16.875Z" fill="white"/>
<path d="M119 16.875H114.333V20.625H119V16.875Z" fill="white"/>
<path d="M126 16.875H121.333V20.625H126V16.875Z" fill="white"/>
<path d="M133 16.875H128.333V20.625H133V16.875Z" fill="white"/>
<path d="M142.333 16.875H137.667V20.625H142.333V16.875Z" fill="white"/>
<path d="M149.333 16.875H144.667V20.625H149.333V16.875Z" fill="white"/>
<path d="M156.333 16.875H151.667V20.625H156.333V16.875Z" fill="white"/>
<g filter="url(#filter1_i)">
<path d="M121.333 52.5H91V187.5H121.333V52.5Z" fill="white"/>
</g>
<path d="M175 82.5H147V187.5H175V82.5Z" fill="white"/>
<g filter="url(#filter2_i)">
<path d="M173.833 70H147V105.376H173.833L201.833 135.699L227.5 107.903V187.5H252V70H227.5L200.667 99.0592L173.833 70Z" fill="white"/>
</g>
<path d="M227.547 69.8957V190.098H254.119V69.8957H227.547Z" fill="#006B38"/>
<path d="M228.875 184.463V188.22H231.532V184.463H228.875Z" fill="white"/>
<path d="M232.861 184.463V188.22H235.518V184.463H232.861Z" fill="white"/>
<path d="M236.847 184.463V188.22H239.505V184.463H236.847Z" fill="white"/>
<path d="M240.833 184.463V188.22H243.49V184.463H240.833Z" fill="white"/>
<path d="M244.818 184.463V188.22H247.475V184.463H244.818Z" fill="white"/>
<path d="M248.803 184.463V188.22H251.461V184.463H248.803Z" fill="white"/>
<path d="M232.861 178.829V182.585H235.518V178.829H232.861Z" fill="white"/>
<path d="M236.847 178.829V182.585H239.505V178.829H236.847Z" fill="white"/>
<path d="M240.833 178.829V182.585H243.49V178.829H240.833Z" fill="white"/>
<path d="M244.818 178.829V182.585H247.475V178.829H244.818Z" fill="white"/>
<path d="M248.803 178.829V182.585H251.461V178.829H248.803Z" fill="white"/>
<path d="M232.861 173.194V176.951H235.518V173.194H232.861Z" fill="white"/>
<path d="M236.847 173.194V176.951H239.505V173.194H236.847Z" fill="white"/>
<path d="M240.833 173.194V176.951H243.49V173.194H240.833Z" fill="white"/>
<path d="M244.818 173.194V176.951H247.475V173.194H244.818Z" fill="white"/>
<path d="M248.806 173.194V176.951H251.463V173.194H248.806Z" fill="white"/>
<path d="M248.803 128.119V131.875H251.461V128.119H248.803Z" fill="white"/>
<path d="M248.803 122.484V126.241H251.461V122.484H248.803Z" fill="white"/>
<path d="M248.806 116.85V120.606H251.463V116.85H248.806Z" fill="white"/>
<path d="M248.806 111.215V114.971H251.463V111.215H248.806Z" fill="white"/>
<path d="M248.806 105.581V109.337H251.463V105.581H248.806Z" fill="white"/>
<path d="M248.806 99.9464V103.703H251.463V99.9464H248.806Z" fill="white"/>
<path d="M248.803 92.4338V98.0682H251.461V92.4338H248.803Z" fill="white"/>
<path d="M248.803 133.753V171.317H251.461V133.753H248.803Z" fill="white"/>
<path d="M232.861 167.56V171.317H235.518V167.56H232.861Z" fill="white"/>
<path d="M236.847 167.56V171.317H239.505V167.56H236.847Z" fill="white"/>
<path d="M240.833 167.56V171.317H243.49V167.56H240.833Z" fill="white"/>
<path d="M244.818 167.56V171.317H247.475V167.56H244.818Z" fill="white"/>
<path d="M232.861 161.926V165.682H235.518V161.926H232.861Z" fill="white"/>
<path d="M236.847 161.925V165.682H239.505V161.925H236.847Z" fill="white"/>
<path d="M240.833 161.926V165.682H243.49V161.926H240.833Z" fill="white"/>
<path d="M244.818 161.926V165.682H247.475V161.926H244.818Z" fill="white"/>
<path d="M232.861 156.291V160.047H235.518V156.291H232.861Z" fill="white"/>
<path d="M236.847 156.291V160.048H239.505V156.291H236.847Z" fill="white"/>
<path d="M240.833 156.291V160.048H243.49V156.291H240.833Z" fill="white"/>
<path d="M244.818 156.291V160.048H247.475V156.291H244.818Z" fill="white"/>
<path d="M232.861 150.657V154.413H235.518V150.657H232.861Z" fill="white"/>
<path d="M236.847 150.657V154.413H239.505V150.657H236.847Z" fill="white"/>
<path d="M240.833 150.657V154.413H243.49V150.657H240.833Z" fill="white"/>
<path d="M244.818 150.657V154.413H247.475V150.657H244.818Z" fill="white"/>
<path d="M232.861 145.022V148.779H235.518V145.022H232.861Z" fill="white"/>
<path d="M236.847 145.022V148.779H239.505V145.022H236.847Z" fill="white"/>
<path d="M240.833 145.022V148.779H243.49V145.022H240.833Z" fill="white"/>
<path d="M244.818 145.022V148.779H247.475V145.022H244.818Z" fill="white"/>
<path d="M232.861 139.388V143.144H235.518V139.388H232.861Z" fill="white"/>
<path d="M236.847 139.388V143.144H239.505V139.388H236.847Z" fill="white"/>
<path d="M240.833 139.388V143.144H243.49V139.388H240.833Z" fill="white"/>
<path d="M244.818 139.388V143.144H247.475V139.388H244.818Z" fill="white"/>
<path d="M232.861 133.753V137.509H235.518V133.753H232.861Z" fill="white"/>
<path d="M236.847 133.753V137.509H239.505V133.753H236.847Z" fill="white"/>
<path d="M240.833 133.753V137.509H243.49V133.753H240.833Z" fill="white"/>
<path d="M244.818 133.753V137.509H247.475V133.753H244.818Z" fill="white"/>
<path d="M232.861 128.119V131.875H235.518V128.119H232.861Z" fill="white"/>
<path d="M236.847 128.119V131.875H239.505V128.119H236.847Z" fill="white"/>
<path d="M240.833 128.119V131.875H243.49V128.119H240.833Z" fill="white"/>
<path d="M244.818 128.119V131.875H247.475V128.119H244.818Z" fill="white"/>
<path d="M232.861 122.484V126.241H235.518V122.484H232.861Z" fill="white"/>
<path d="M236.847 122.484V126.241H239.505V122.484H236.847Z" fill="white"/>
<path d="M240.833 122.484V126.241H243.49V122.484H240.833Z" fill="white"/>
<path d="M244.818 122.484V126.241H247.475V122.484H244.818Z" fill="white"/>
<path d="M232.861 116.85V120.606H235.519V116.85H232.861Z" fill="white"/>
<path d="M236.847 116.85V120.606H239.505V116.85H236.847Z" fill="white"/>
<path d="M240.833 116.85V120.606H243.49V116.85H240.833Z" fill="white"/>
<path d="M244.818 116.85V120.606H247.475V116.85H244.818Z" fill="white"/>
<path d="M232.861 111.215V114.971H235.519V111.215H232.861Z" fill="white"/>
<path d="M236.847 111.215V114.971H239.505V111.215H236.847Z" fill="white"/>
<path d="M240.833 111.215V114.971H243.49V111.215H240.833Z" fill="white"/>
<path d="M244.818 111.215V114.971H247.475V111.215H244.818Z" fill="white"/>
<path d="M232.861 105.581V109.337H235.519V105.581H232.861Z" fill="white"/>
<path d="M236.847 105.581V109.337H239.505V105.581H236.847Z" fill="white"/>
<path d="M240.833 105.581V109.337H243.49V105.581H240.833Z" fill="white"/>
<path d="M244.818 105.581V109.337H247.475V105.581H244.818Z" fill="white"/>
<path d="M232.861 99.9462V103.703H235.518V99.9462H232.861Z" fill="white"/>
<path d="M232.861 86.7991V90.5555H235.518V86.7991H232.861Z" fill="white"/>
<path d="M236.847 86.7992V90.5555H239.505V86.7992H236.847Z" fill="white"/>
<path d="M248.803 86.7992V90.5555H251.461V86.7992H248.803Z" fill="white"/>
<path d="M248.803 81.1647V84.921H251.461V81.1647H248.803Z" fill="white"/>
<path d="M248.806 75.5302V79.2865H251.463V75.5302H248.806Z" fill="white"/>
<path d="M244.818 81.1647V84.921H247.475V81.1647H244.818Z" fill="white"/>
<path d="M228.875 86.7992V90.5555H231.532V86.7992H228.875Z" fill="white"/>
<path d="M232.861 81.1647V84.921H235.518V81.1647H232.861Z" fill="white"/>
<path d="M236.847 81.1647V84.921H239.505V81.1647H236.847Z" fill="white"/>
<path d="M228.875 81.1647V84.921H231.532V81.1647H228.875Z" fill="white"/>
<path d="M232.861 75.5302V79.2865H235.518V75.5302H232.861Z" fill="white"/>
<path d="M236.847 75.5302V79.2865H239.505V75.5302H236.847Z" fill="white"/>
<path d="M228.875 75.5302V79.2865H231.532V75.5302H228.875Z" fill="white"/>
<path d="M236.847 99.9462V103.703H239.505V99.9462H236.847Z" fill="white"/>
<path d="M240.833 99.9462V103.703H243.49V99.9462H240.833Z" fill="white"/>
<path d="M244.818 99.9464V103.703H247.475V99.9464H244.818Z" fill="white"/>
<path d="M232.861 92.4338V98.0682H235.518V92.4338H232.861Z" fill="white"/>
<path d="M236.847 92.4338V98.0682H239.505V92.4338H236.847Z" fill="white"/>
<path d="M240.833 92.4338V98.0682H243.49V92.4338H240.833Z" fill="white"/>
<path d="M244.818 92.4338V98.0682H247.475V92.4338H244.818Z" fill="white"/>
<path d="M228.875 176.951V180.707H231.532V176.951H228.875Z" fill="white"/>
<path d="M228.875 171.316V175.073H231.532V171.316H228.875Z" fill="white"/>
<path d="M228.875 165.682V169.438H231.532V165.682H228.875Z" fill="white"/>
<path d="M228.875 160.047V163.804H231.532V160.047H228.875Z" fill="white"/>
<path d="M228.876 152.535V156.291H231.533V152.535H228.876Z" fill="white"/>
<path d="M228.875 146.9V150.657H231.532V146.9H228.875Z" fill="white"/>
<path d="M228.875 141.266V145.022H231.532V141.266H228.875Z" fill="white"/>
<path d="M228.875 135.631V139.388H231.533V135.631H228.875Z" fill="white"/>
<path d="M228.875 128.119V131.875H231.532V128.119H228.875Z" fill="white"/>
<path d="M228.875 122.484V126.241H231.532V122.484H228.875Z" fill="white"/>
<path d="M228.875 116.85V120.606H231.533V116.85H228.875Z" fill="white"/>
<path d="M228.875 111.215V114.971H231.533V111.215H228.875Z" fill="white"/>
<path d="M228.875 103.703V107.459H231.532V103.703H228.875Z" fill="white"/>
<path d="M228.875 98.0682V101.824H231.532V98.0682H228.875Z" fill="white"/>
<path d="M228.875 92.4337V96.19H231.532V92.4337H228.875Z" fill="white"/>
<path d="M175 187.702V67.5H147V187.702H175Z" fill="#006B38"/>
<path d="M173.6 73.1346V69.3782H170.8V73.1346H173.6Z" fill="white"/>
<path d="M169.4 73.1346V69.3782H166.6V73.1346H169.4Z" fill="white"/>
<path d="M165.2 73.1346V69.3782H162.4V73.1346H165.2Z" fill="white"/>
<path d="M161 73.1346V69.3782H158.2V73.1346H161Z" fill="white"/>
<path d="M156.8 73.1346V69.3783H154V73.1346H156.8Z" fill="white"/>
<path d="M152.6 73.1346V69.3782H149.8V73.1346H152.6Z" fill="white"/>
<path d="M169.4 78.7689V75.0125H166.6V78.7689H169.4Z" fill="white"/>
<path d="M165.2 78.7691V75.0128H162.4V78.7691H165.2Z" fill="white"/>
<path d="M161 78.7691V75.0128H158.2V78.7691H161Z" fill="white"/>
<path d="M156.8 78.7688V75.0125H154V78.7688H156.8Z" fill="white"/>
<path d="M152.6 78.7691V75.0128H149.8V78.7691H152.6Z" fill="white"/>
<path d="M169.4 84.4036V80.6472H166.6V84.4036H169.4Z" fill="white"/>
<path d="M165.2 84.4036V80.6473H162.4V84.4036H165.2Z" fill="white"/>
<path d="M161 84.4036V80.6472H158.2V84.4036H161Z" fill="white"/>
<path d="M156.8 84.4036V80.6472H154V84.4036H156.8Z" fill="white"/>
<path d="M152.6 84.4036V80.6473H149.799V84.4036H152.6Z" fill="white"/>
<path d="M152.6 129.479V125.723H149.8V129.479H152.6Z" fill="white"/>
<path d="M152.6 135.114V131.358H149.8V135.114H152.6Z" fill="white"/>
<path d="M152.6 140.748V136.992H149.799V140.748H152.6Z" fill="white"/>
<path d="M152.6 146.383V142.626H149.799V146.383H152.6Z" fill="white"/>
<path d="M152.6 152.017V148.261H149.799V152.017H152.6Z" fill="white"/>
<path d="M152.6 157.652V153.895H149.799V157.652H152.6Z" fill="white"/>
<path d="M152.6 165.164V159.53H149.8V165.164H152.6Z" fill="white"/>
<path d="M152.6 123.845V86.2815H149.8V123.845H152.6Z" fill="white"/>
<path d="M169.4 90.0378V86.2815H166.6V90.0378H169.4Z" fill="white"/>
<path d="M165.2 90.0378V86.2815H162.4V90.0378H165.2Z" fill="white"/>
<path d="M161 90.0378V86.2815H158.2V90.0378H161Z" fill="white"/>
<path d="M156.8 90.0378V86.2815H154V90.0378H156.8Z" fill="white"/>
<path d="M169.4 95.6723V91.916H166.6V95.6723H169.4Z" fill="white"/>
<path d="M165.2 95.6723V91.916H162.4V95.6723H165.2Z" fill="white"/>
<path d="M161 95.6723V91.916H158.2V95.6723H161Z" fill="white"/>
<path d="M156.8 95.6723V91.916H154V95.6723H156.8Z" fill="white"/>
<path d="M169.4 101.307V97.5505H166.6V101.307H169.4Z" fill="white"/>
<path d="M165.2 101.307V97.5505H162.4V101.307H165.2Z" fill="white"/>
<path d="M161 101.307V97.5505H158.2V101.307H161Z" fill="white"/>
<path d="M156.8 101.307V97.5505H154V101.307H156.8Z" fill="white"/>
<path d="M169.4 106.941V103.185H166.601V106.941H169.4Z" fill="white"/>
<path d="M165.2 106.941V103.185H162.4V106.941H165.2Z" fill="white"/>
<path d="M161 106.941V103.185H158.2V106.941H161Z" fill="white"/>
<path d="M156.8 106.941V103.185H154V106.941H156.8Z" fill="white"/>
<path d="M169.4 112.576V108.819H166.6V112.576H169.4Z" fill="white"/>
<path d="M165.2 112.576V108.82H162.4V112.576H165.2Z" fill="white"/>
<path d="M161 112.576V108.819H158.2V112.576H161Z" fill="white"/>
<path d="M156.8 112.576V108.82H154V112.576H156.8Z" fill="white"/>
<path d="M169.4 118.21V114.454H166.6V118.21H169.4Z" fill="white"/>
<path d="M165.2 118.21V114.454H162.4V118.21H165.2Z" fill="white"/>
<path d="M161 118.21V114.454H158.2V118.21H161Z" fill="white"/>
<path d="M156.8 118.21V114.454H154V118.21H156.8Z" fill="white"/>
<path d="M169.4 123.845V120.089H166.6V123.845H169.4Z" fill="white"/>
<path d="M165.2 123.845V120.089H162.4V123.845H165.2Z" fill="white"/>
<path d="M161 123.845V120.089H158.2V123.845H161Z" fill="white"/>
<path d="M156.8 123.845V120.089H154V123.845H156.8Z" fill="white"/>
<path d="M169.4 129.479V125.723H166.6V129.479H169.4Z" fill="white"/>
<path d="M165.2 129.479V125.723H162.4V129.479H165.2Z" fill="white"/>
<path d="M161 129.479V125.723H158.2V129.479H161Z" fill="white"/>
<path d="M156.8 129.479V125.723H154V129.479H156.8Z" fill="white"/>
<path d="M169.4 135.114V131.358H166.6V135.114H169.4Z" fill="white"/>
<path d="M165.2 135.114V131.358H162.4V135.114H165.2Z" fill="white"/>
<path d="M161 135.114V131.358H158.2V135.114H161Z" fill="white"/>
<path d="M156.8 135.114V131.358H154V135.114H156.8Z" fill="white"/>
<path d="M169.4 140.748V136.992H166.6V140.748H169.4Z" fill="white"/>
<path d="M165.2 140.748V136.992H162.4V140.748H165.2Z" fill="white"/>
<path d="M161 140.748V136.992H158.2V140.748H161Z" fill="white"/>
<path d="M156.8 140.748V136.992H154V140.748H156.8Z" fill="white"/>
<path d="M169.4 146.383V142.626H166.6V146.383H169.4Z" fill="white"/>
<path d="M165.2 146.383V142.626H162.4V146.383H165.2Z" fill="white"/>
<path d="M161 146.383V142.626H158.2V146.383H161Z" fill="white"/>
<path d="M156.8 146.383V142.626H154V146.383H156.8Z" fill="white"/>
<path d="M169.4 152.017V148.261H166.6V152.017H169.4Z" fill="white"/>
<path d="M165.2 152.017V148.261H162.4V152.017H165.2Z" fill="white"/>
<path d="M161 152.017V148.261H158.2V152.017H161Z" fill="white"/>
<path d="M156.8 152.017V148.261H154V152.017H156.8Z" fill="white"/>
<path d="M169.4 157.652V153.895H166.6V157.652H169.4Z" fill="white"/>
<path d="M169.4 170.799V167.042H166.6V170.799H169.4Z" fill="white"/>
<path d="M165.2 170.799V167.043H162.4V170.799H165.2Z" fill="white"/>
<path d="M152.6 170.799V167.043H149.8V170.799H152.6Z" fill="white"/>
<path d="M152.6 176.433V172.677H149.8V176.433H152.6Z" fill="white"/>
<path d="M152.6 182.068V178.311H149.8V182.068H152.6Z" fill="white"/>
<path d="M156.8 176.433V172.677H154V176.433H156.8Z" fill="white"/>
<path d="M173.6 170.799V167.043H170.8V170.799H173.6Z" fill="white"/>
<path d="M169.4 176.433V172.677H166.6V176.433H169.4Z" fill="white"/>
<path d="M165.2 176.433V172.677H162.4V176.433H165.2Z" fill="white"/>
<path d="M173.6 176.433V172.677H170.8V176.433H173.6Z" fill="white"/>
<path d="M169.4 182.068V178.311H166.6V182.068H169.4Z" fill="white"/>
<path d="M165.2 182.068V178.311H162.4V182.068H165.2Z" fill="white"/>
<path d="M173.6 182.068V178.311H170.8V182.068H173.6Z" fill="white"/>
<path d="M165.2 157.652V153.895H162.4V157.652H165.2Z" fill="white"/>
<path d="M161 157.652V153.895H158.2V157.652H161Z" fill="white"/>
<path d="M156.8 157.652V153.895H154V157.652H156.8Z" fill="white"/>
<path d="M169.4 165.164V159.53H166.6V165.164H169.4Z" fill="white"/>
<path d="M165.2 165.164V159.53H162.4V165.164H165.2Z" fill="white"/>
<path d="M161 165.164V159.53H158.2V165.164H161Z" fill="white"/>
<path d="M156.8 165.164V159.53H154V165.164H156.8Z" fill="white"/>
<path d="M173.6 80.6471V76.8907H170.8V80.6471H173.6Z" fill="white"/>
<path d="M173.6 86.2816V82.5253H170.8V86.2816H173.6Z" fill="white"/>
<path d="M173.6 91.9161V88.1598H170.8V91.9161H173.6Z" fill="white"/>
<path d="M173.6 97.5506V93.7943H170.8V97.5506H173.6Z" fill="white"/>
<path d="M173.6 105.063V101.307H170.799V105.063H173.6Z" fill="white"/>
<path d="M173.6 110.698V106.942H170.8V110.698H173.6Z" fill="white"/>
<path d="M173.6 116.332V112.576H170.8V116.332H173.6Z" fill="white"/>
<path d="M173.6 121.967V118.21H170.8V121.967H173.6Z" fill="white"/>
<path d="M173.6 129.479V125.723H170.8V129.479H173.6Z" fill="white"/>
<path d="M173.6 135.114V131.358H170.8V135.114H173.6Z" fill="white"/>
<path d="M173.6 140.748V136.992H170.8V140.748H173.6Z" fill="white"/>
<path d="M173.6 146.383V142.626H170.8V146.383H173.6Z" fill="white"/>
<path d="M173.6 153.895V150.139H170.8V153.895H173.6Z" fill="white"/>
<path d="M173.6 159.53V155.773H170.8V159.53H173.6Z" fill="white"/>
<path d="M173.6 165.164V161.408H170.8V165.164H173.6Z" fill="white"/>
<g filter="url(#filter3_d)">
<path d="M65.7883 209.075V204.5H83.2883V209.075H76.9883V230H72.1583V209.075H65.7883ZM82.5729 211.25H87.1929L90.3779 225.725H91.1829L94.3679 211.25H98.9879L92.8279 237.875H88.2429L90.1679 230H86.8779L82.5729 211.25ZM101.683 237.875V211.25H106.338V212.262C107.855 211.287 109.185 210.8 110.328 210.8C112.685 210.8 114.423 211.562 115.543 213.087C116.663 214.587 117.223 217.15 117.223 220.775C117.223 224.4 116.605 226.925 115.368 228.35C114.131 229.75 112.101 230.45 109.278 230.45C108.508 230.45 107.68 230.375 106.793 230.225L106.373 230.15V237.875H101.683ZM109.418 215.3C108.555 215.3 107.68 215.488 106.793 215.863L106.373 216.05V225.875C107.423 226.025 108.275 226.1 108.928 226.1C110.281 226.1 111.203 225.675 111.693 224.825C112.206 223.975 112.463 222.525 112.463 220.475C112.463 217.025 111.448 215.3 109.418 215.3ZM120.721 230V211.25H125.411V230H120.721ZM120.721 208.85V203.75H125.411V208.85H120.721ZM134.435 230H129.745V211.25H134.4V212.3C135.986 211.3 137.445 210.8 138.775 210.8C141.108 210.8 142.718 211.538 143.605 213.013C144.491 214.488 144.935 216.762 144.935 219.837V230H140.245V219.988C140.245 218.388 140.07 217.212 139.72 216.462C139.37 215.687 138.67 215.3 137.62 215.3C136.663 215.3 135.741 215.475 134.855 215.825L134.435 215.975V230ZM164.945 232.325C164.945 234.475 164.175 236.062 162.635 237.087C161.095 238.112 159.007 238.625 156.37 238.625C153.757 238.625 151.739 238.25 150.315 237.5C148.915 236.75 148.215 235.387 148.215 233.412C148.215 231.837 149.055 230.35 150.735 228.95C149.872 228.325 149.44 227.375 149.44 226.1C149.44 225.6 149.79 224.775 150.49 223.625L150.805 223.1C149.219 221.875 148.425 220.075 148.425 217.7C148.425 215.3 149.09 213.563 150.42 212.488C151.774 211.413 153.559 210.875 155.775 210.875C156.779 210.875 157.77 211 158.75 211.25L159.31 211.362L164.945 211.175V215.187L162.32 214.962C162.834 215.812 163.09 216.662 163.09 217.512C163.09 220.012 162.495 221.737 161.305 222.687C160.115 223.637 158.249 224.112 155.705 224.112C155.169 224.112 154.69 224.062 154.27 223.962C154.037 224.612 153.92 225.15 153.92 225.575C153.92 225.975 154.119 226.25 154.515 226.4C154.912 226.55 155.845 226.637 157.315 226.662C160.255 226.687 162.262 227.113 163.335 227.938C164.409 228.738 164.945 230.2 164.945 232.325ZM152.835 232.887C152.835 233.962 154.06 234.5 156.51 234.5C158.984 234.5 160.22 233.875 160.22 232.625C160.22 231.95 160.01 231.512 159.59 231.312C159.17 231.137 158.284 231.037 156.93 231.012L153.78 230.75C153.15 231.425 152.835 232.137 152.835 232.887ZM153.115 217.55C153.115 219.375 154.002 220.287 155.775 220.287C157.572 220.287 158.47 219.375 158.47 217.55C158.47 215.7 157.572 214.775 155.775 214.775C154.002 214.775 153.115 215.7 153.115 217.55ZM175.897 230V204.5H184.122L188.322 223.1L192.522 204.5H200.747V230H195.917V210.275H195.392L190.737 228.875H185.907L181.252 210.275H180.727V230H175.897ZM218.926 217.1V224.9C218.973 225.5 219.066 225.925 219.206 226.175C219.346 226.4 219.638 226.562 220.081 226.662L219.941 230.45C218.751 230.45 217.794 230.362 217.071 230.187C216.371 230.012 215.659 229.662 214.936 229.137C213.256 230.012 211.541 230.45 209.791 230.45C206.174 230.45 204.366 228.4 204.366 224.3C204.366 222.3 204.868 220.888 205.871 220.063C206.874 219.213 208.414 218.713 210.491 218.563L214.236 218.262V217.1C214.236 216.325 214.073 215.8 213.746 215.525C213.419 215.225 212.894 215.075 212.171 215.075L205.591 215.375L205.451 211.887C207.948 211.162 210.316 210.8 212.556 210.8C214.819 210.8 216.441 211.3 217.421 212.3C218.424 213.3 218.926 214.9 218.926 217.1ZM211.051 222.05C209.744 222.175 209.091 222.925 209.091 224.3C209.091 225.675 209.663 226.362 210.806 226.362C211.693 226.362 212.661 226.212 213.711 225.912L214.236 225.762V221.75L211.051 222.05ZM235.963 215.937C233.069 215.537 231.039 215.338 229.872 215.338C228.729 215.338 227.982 215.45 227.632 215.675C227.305 215.9 227.142 216.263 227.142 216.763C227.142 217.238 227.364 217.575 227.807 217.775C228.274 217.95 229.44 218.225 231.307 218.6C233.197 218.95 234.54 219.537 235.333 220.362C236.126 221.187 236.523 222.525 236.523 224.375C236.523 228.425 234.178 230.45 229.487 230.45C227.947 230.45 226.08 230.225 223.887 229.775L222.767 229.55L222.907 225.35C225.8 225.75 227.807 225.95 228.927 225.95C230.07 225.95 230.84 225.838 231.237 225.613C231.657 225.363 231.867 225 231.867 224.525C231.867 224.05 231.645 223.7 231.202 223.475C230.782 223.25 229.662 222.975 227.842 222.65C226.045 222.325 224.704 221.775 223.817 221C222.93 220.225 222.487 218.85 222.487 216.875C222.487 214.875 223.117 213.375 224.377 212.375C225.637 211.35 227.259 210.837 229.242 210.837C230.619 210.837 232.497 211.075 234.878 211.55L236.033 211.775L235.963 215.937ZM249.601 215.525H245.296V223.213C245.296 223.963 245.308 224.5 245.331 224.825C245.378 225.125 245.506 225.388 245.716 225.613C245.95 225.838 246.3 225.95 246.766 225.95L249.426 225.875L249.636 229.887C248.073 230.262 246.883 230.45 246.066 230.45C243.966 230.45 242.531 229.95 241.761 228.95C240.991 227.925 240.606 226.05 240.606 223.325V215.525H238.541V211.25H240.606V206.038H245.296V211.25H249.601V215.525ZM256.506 222.763C256.529 223.913 256.809 224.75 257.346 225.275C257.906 225.775 258.699 226.025 259.726 226.025C261.896 226.025 263.832 225.95 265.536 225.8L266.516 225.687L266.586 229.4C263.902 230.1 261.476 230.45 259.306 230.45C256.669 230.45 254.756 229.7 253.566 228.2C252.376 226.7 251.781 224.263 251.781 220.888C251.781 214.163 254.359 210.8 259.516 210.8C264.602 210.8 267.146 213.625 267.146 219.275L266.796 222.763H256.506ZM262.526 218.937C262.526 217.437 262.304 216.4 261.861 215.825C261.417 215.225 260.636 214.925 259.516 214.925C258.419 214.925 257.637 215.238 257.171 215.863C256.727 216.463 256.494 217.487 256.471 218.937H262.526ZM270.496 230V211.25H275.151V213.237C277.111 211.987 278.978 211.175 280.751 210.8V215.863C278.861 216.288 277.24 216.725 275.886 217.175L275.186 217.437V230H270.496Z" fill="white"/>
</g>
<defs>
<filter id="filter0_i" x="116.667" y="70" width="56" height="9" filterUnits="userSpaceOnUse" color-interpolation-filters="sRGB">
<feFlood flood-opacity="0" result="BackgroundImageFix"/>
<feBlend mode="normal" in="SourceGraphic" in2="BackgroundImageFix" result="shape"/>
<feColorMatrix in="SourceAlpha" type="matrix" values="0 0 0 0 0 0 0 0 0 0 0 0 0 0 0 0 0 0 127 0" result="hardAlpha"/>
<feOffset dy="4"/>
<feGaussianBlur stdDeviation="2"/>
<feComposite in2="hardAlpha" operator="arithmetic" k2="-1" k3="1"/>
<feColorMatrix type="matrix" values="0 0 0 0 0 0 0 0 0 0 0 0 0 0 0 0 0 0 0.25 0"/>
<feBlend mode="normal" in2="shape" result="effect1_innerShadow"/>
</filter>
<filter id="filter1_i" x="91" y="52.5" width="30.3333" height="139" filterUnits="userSpaceOnUse" color-interpolation-filters="sRGB">
<feFlood flood-opacity="0" result="BackgroundImageFix"/>
<feBlend mode="normal" in="SourceGraphic" in2="BackgroundImageFix" result="shape"/>
<feColorMatrix in="SourceAlpha" type="matrix" values="0 0 0 0 0 0 0 0 0 0 0 0 0 0 0 0 0 0 127 0" result="hardAlpha"/>
<feOffset dy="4"/>
<feGaussianBlur stdDeviation="2"/>
<feComposite in2="hardAlpha" operator="arithmetic" k2="-1" k3="1"/>
<feColorMatrix type="matrix" values="0 0 0 0 0 0 0 0 0 0 0 0 0 0 0 0 0 0 0.25 0"/>
<feBlend mode="normal" in2="shape" result="effect1_innerShadow"/>
</filter>
<filter id="filter2_i" x="147" y="70" width="105" height="121.5" filterUnits="userSpaceOnUse" color-interpolation-filters="sRGB">
<feFlood flood-opacity="0" result="BackgroundImageFix"/>
<feBlend mode="normal" in="SourceGraphic" in2="BackgroundImageFix" result="shape"/>
<feColorMatrix in="SourceAlpha" type="matrix" values="0 0 0 0 0 0 0 0 0 0 0 0 0 0 0 0 0 0 127 0" result="hardAlpha"/>
<feOffset dy="4"/>
<feGaussianBlur stdDeviation="2"/>
<feComposite in2="hardAlpha" operator="arithmetic" k2="-1" k3="1"/>
<feColorMatrix type="matrix" values="0 0 0 0 0 0 0 0 0 0 0 0 0 0 0 0 0 0 0.25 0"/>
<feBlend mode="normal" in2="shape" result="effect1_innerShadow"/>
</filter>
<filter id="filter3_d" x="61.7883" y="203.75" width="222.963" height="42.875" filterUnits="userSpaceOnUse" color-interpolation-filters="sRGB">
<feFlood flood-opacity="0" result="BackgroundImageFix"/>
<feColorMatrix in="SourceAlpha" type="matrix" values="0 0 0 0 0 0 0 0 0 0 0 0 0 0 0 0 0 0 127 0"/>
<feOffset dy="4"/>
<feGaussianBlur stdDeviation="2"/>
<feColorMatrix type="matrix" values="0 0 0 0 0 0 0 0 0 0 0 0 0 0 0 0 0 0 0.25 0"/>
<feBlend mode="normal" in2="BackgroundImageFix" result="effect1_dropShadow"/>
<feBlend mode="normal" in="SourceGraphic" in2="effect1_dropShadow" result="shape"/>
</filter>
</defs>
</svg>
